<svg width="1200" height="630" viewBox="0 0 1200 630" fill="none" xmlns="http://www.w3.org/2000/svg">
  <rect width="1200" height="630" fill="url(#bg-gradient-anat)"/>

  <!-- Anatomy icon - spine detail -->
  <g transform="translate(880, 100)">
    <!-- Vertebrae -->
    <ellipse cx="100" cy="50" rx="35" ry="20" stroke="#E07A5F" stroke-width="3" fill="none"/>
    <ellipse cx="100" cy="110" rx="40" ry="22" stroke="#E07A5F" stroke-width="3" fill="none"/>
    <ellipse cx="100" cy="175" rx="45" ry="25" stroke="#E07A5F" stroke-width="4" fill="#E07A5F" opacity="0.1"/>
    <ellipse cx="100" cy="175" rx="45" ry="25" stroke="#E07A5F" stroke-width="4" fill="none"/>
    <ellipse cx="100" cy="245" rx="50" ry="28" stroke="#E07A5F" stroke-width="3" fill="none"/>
    <ellipse cx="100" cy="320" rx="55" ry="30" stroke="#E07A5F" stroke-width="3" fill="none"/>
    <!-- Spine line -->
    <path d="M100 30 L100 350" stroke="#E07A5F" stroke-width="2" stroke-dasharray="8 4" opacity="0.4"/>
  </g>

  <!-- Logo -->
  <circle cx="80" cy="80" r="35" stroke="#E07A5F" stroke-width="3" fill="#FFFFFF"/>
  <path d="M80 45C80 45 68 60 68 80C68 100 80 115 80 115" stroke="#E07A5F" stroke-width="3" stroke-linecap="round"/>
  <path d="M80 45C80 45 92 60 92 80C92 100 80 115 80 115" stroke="#E07A5F" stroke-width="3" stroke-linecap="round"/>
  <circle cx="80" cy="52" r="6" fill="#E07A5F"/>

  <!-- Text -->
  <text x="140" y="90" font-family="Georgia, serif" font-size="36" fill="#6B7280">FemalePosture.com</text>
  <text x="80" y="300" font-family="Georgia, serif" font-size="72" font-weight="bold" fill="#1F2937">Posture Anatomy</text>
  <text x="80" y="380" font-family="system-ui, sans-serif" font-size="36" fill="#6B7280">Understanding the structures of good posture</text>
  <text x="80" y="550" font-family="system-ui, sans-serif" font-size="24" fill="#9CA3AF">femaleposture.com/anatomy</text>

  <defs>
    <linearGradient id="bg-gradient-anat" x1="0" y1="0" x2="1200" y2="630">
      <stop offset="0%" stop-color="#FDF8F6"/>
      <stop offset="100%" stop-color="#FFFFFF"/>
    </linearGradient>
  </defs>
</svg>
