<svg width="1200" height="630" viewBox="0 0 1200 630" fill="none" xmlns="http://www.w3.org/2000/svg">
  <rect width="1200" height="630" fill="url(#bg-gradient-cond)"/>

  <!-- Medical/condition icon - spine with highlight -->
  <g transform="translate(880, 120)">
    <path d="M100 20 L100 380" stroke="#E07A5F" stroke-width="6" stroke-linecap="round" opacity="0.3"/>
    <circle cx="100" cy="60" r="20" stroke="#E07A5F" stroke-width="3" fill="#FDF8F6"/>
    <circle cx="100" cy="120" r="22" stroke="#E07A5F" stroke-width="3" fill="#FDF8F6"/>
    <circle cx="100" cy="185" r="24" stroke="#E07A5F" stroke-width="4" fill="#E07A5F" opacity="0.3"/>
    <circle cx="100" cy="185" r="24" stroke="#E07A5F" stroke-width="4" fill="none"/>
    <circle cx="100" cy="255" r="22" stroke="#E07A5F" stroke-width="3" fill="#FDF8F6"/>
    <circle cx="100" cy="320" r="20" stroke="#E07A5F" stroke-width="3" fill="#FDF8F6"/>
  </g>

  <!-- Logo -->
  <circle cx="80" cy="80" r="35" stroke="#E07A5F" stroke-width="3" fill="#FFFFFF"/>
  <path d="M80 45C80 45 68 60 68 80C68 100 80 115 80 115" stroke="#E07A5F" stroke-width="3" stroke-linecap="round"/>
  <path d="M80 45C80 45 92 60 92 80C92 100 80 115 80 115" stroke="#E07A5F" stroke-width="3" stroke-linecap="round"/>
  <circle cx="80" cy="52" r="6" fill="#E07A5F"/>

  <!-- Text -->
  <text x="140" y="90" font-family="Georgia, serif" font-size="36" fill="#6B7280">FemalePosture.com</text>
  <text x="80" y="300" font-family="Georgia, serif" font-size="72" font-weight="bold" fill="#1F2937">Posture Conditions</text>
  <text x="80" y="380" font-family="system-ui, sans-serif" font-size="36" fill="#6B7280">Understand and address common posture issues</text>
  <text x="80" y="550" font-family="system-ui, sans-serif" font-size="24" fill="#9CA3AF">femaleposture.com/conditions</text>

  <defs>
    <linearGradient id="bg-gradient-cond" x1="0" y1="0" x2="1200" y2="630">
      <stop offset="0%" stop-color="#FDF8F6"/>
      <stop offset="100%" stop-color="#FFFFFF"/>
    </linearGradient>
  </defs>
</svg>
