<svg width="1200" height="630" viewBox="0 0 1200 630" fill="none" xmlns="http://www.w3.org/2000/svg">
  <rect width="1200" height="630" fill="url(#bg-gradient-ls)"/>

  <!-- Life stages icon - growing figures -->
  <g transform="translate(820, 180)">
    <!-- Young -->
    <circle cx="60" cy="60" r="15" stroke="#E07A5F" stroke-width="3" fill="none" opacity="0.5"/>
    <path d="M60 75 L60 130" stroke="#E07A5F" stroke-width="3" stroke-linecap="round" opacity="0.5"/>
    <path d="M60 130 L45 180" stroke="#E07A5F" stroke-width="3" stroke-linecap="round" opacity="0.5"/>
    <path d="M60 130 L75 180" stroke="#E07A5F" stroke-width="3" stroke-linecap="round" opacity="0.5"/>
    <!-- Adult -->
    <circle cx="160" cy="40" r="22" stroke="#E07A5F" stroke-width="4" fill="none"/>
    <path d="M160 62 L160 150" stroke="#E07A5F" stroke-width="4" stroke-linecap="round"/>
    <path d="M160 90 L125 130" stroke="#E07A5F" stroke-width="4" stroke-linecap="round"/>
    <path d="M160 90 L195 130" stroke="#E07A5F" stroke-width="4" stroke-linecap="round"/>
    <path d="M160 150 L135 220" stroke="#E07A5F" stroke-width="4" stroke-linecap="round"/>
    <path d="M160 150 L185 220" stroke="#E07A5F" stroke-width="4" stroke-linecap="round"/>
    <!-- Senior -->
    <circle cx="270" cy="50" r="18" stroke="#E07A5F" stroke-width="3" fill="none" opacity="0.7"/>
    <path d="M270 68 L270 140" stroke="#E07A5F" stroke-width="3" stroke-linecap="round" opacity="0.7"/>
    <path d="M270 140 L250 200" stroke="#E07A5F" stroke-width="3" stroke-linecap="round" opacity="0.7"/>
    <path d="M270 140 L290 200" stroke="#E07A5F" stroke-width="3" stroke-linecap="round" opacity="0.7"/>
  </g>

  <!-- Logo -->
  <circle cx="80" cy="80" r="35" stroke="#E07A5F" stroke-width="3" fill="#FFFFFF"/>
  <path d="M80 45C80 45 68 60 68 80C68 100 80 115 80 115" stroke="#E07A5F" stroke-width="3" stroke-linecap="round"/>
  <path d="M80 45C80 45 92 60 92 80C92 100 80 115 80 115" stroke="#E07A5F" stroke-width="3" stroke-linecap="round"/>
  <circle cx="80" cy="52" r="6" fill="#E07A5F"/>

  <!-- Text -->
  <text x="140" y="90" font-family="Georgia, serif" font-size="36" fill="#6B7280">FemalePosture.com</text>
  <text x="80" y="300" font-family="Georgia, serif" font-size="72" font-weight="bold" fill="#1F2937">Life Stages</text>
  <text x="80" y="380" font-family="system-ui, sans-serif" font-size="36" fill="#6B7280">Posture guidance for every phase of life</text>
  <text x="80" y="550" font-family="system-ui, sans-serif" font-size="24" fill="#9CA3AF">femaleposture.com/life-stages</text>

  <defs>
    <linearGradient id="bg-gradient-ls" x1="0" y1="0" x2="1200" y2="630">
      <stop offset="0%" stop-color="#FDF8F6"/>
      <stop offset="100%" stop-color="#FFFFFF"/>
    </linearGradient>
  </defs>
</svg>
