<svg width="1200" height="630" viewBox="0 0 1200 630" fill="none" xmlns="http://www.w3.org/2000/svg">
  <rect width="1200" height="630" fill="url(#bg-gradient-mh)"/>

  <!-- Mental health icon - head with calm waves -->
  <g transform="translate(880, 130)">
    <circle cx="100" cy="100" r="80" stroke="#E07A5F" stroke-width="4" fill="none"/>
    <!-- Brain/mind waves -->
    <path d="M60 90 Q80 70 100 90 Q120 110 140 90" stroke="#E07A5F" stroke-width="3" fill="none" opacity="0.6"/>
    <path d="M60 120 Q80 100 100 120 Q120 140 140 120" stroke="#E07A5F" stroke-width="3" fill="none" opacity="0.4"/>
    <!-- Heart -->
    <path d="M100 160 C85 145 70 155 70 170 C70 185 100 210 100 210 C100 210 130 185 130 170 C130 155 115 145 100 160" fill="#E07A5F" opacity="0.3" stroke="#E07A5F" stroke-width="2"/>
  </g>

  <!-- Logo -->
  <circle cx="80" cy="80" r="35" stroke="#E07A5F" stroke-width="3" fill="#FFFFFF"/>
  <path d="M80 45C80 45 68 60 68 80C68 100 80 115 80 115" stroke="#E07A5F" stroke-width="3" stroke-linecap="round"/>
  <path d="M80 45C80 45 92 60 92 80C92 100 80 115 80 115" stroke="#E07A5F" stroke-width="3" stroke-linecap="round"/>
  <circle cx="80" cy="52" r="6" fill="#E07A5F"/>

  <!-- Text -->
  <text x="140" y="90" font-family="Georgia, serif" font-size="36" fill="#6B7280">FemalePosture.com</text>
  <text x="80" y="300" font-family="Georgia, serif" font-size="72" font-weight="bold" fill="#1F2937">Mind-Body Connection</text>
  <text x="80" y="380" font-family="system-ui, sans-serif" font-size="36" fill="#6B7280">How posture affects mental wellbeing</text>
  <text x="80" y="550" font-family="system-ui, sans-serif" font-size="24" fill="#9CA3AF">femaleposture.com/mental-health</text>

  <defs>
    <linearGradient id="bg-gradient-mh" x1="0" y1="0" x2="1200" y2="630">
      <stop offset="0%" stop-color="#FDF8F6"/>
      <stop offset="100%" stop-color="#FFFFFF"/>
    </linearGradient>
  </defs>
</svg>
