<svg width="1200" height="630" viewBox="0 0 1200 630" fill="none" xmlns="http://www.w3.org/2000/svg">
  <rect width="1200" height="630" fill="url(#bg-gradient-tools)"/>

  <!-- Tools icon - checklist/assessment -->
  <g transform="translate(880, 130)">
    <rect x="20" y="20" width="180" height="240" rx="10" stroke="#E07A5F" stroke-width="4" fill="none"/>
    <!-- Checklist items -->
    <rect x="50" y="60" width="20" height="20" rx="4" stroke="#E07A5F" stroke-width="3" fill="none"/>
    <path d="M54 70 L60 76 L74 62" stroke="#E07A5F" stroke-width="3" stroke-linecap="round" stroke-linejoin="round"/>
    <rect x="85" y="65" width="90" height="10" rx="2" fill="#E07A5F" opacity="0.3"/>

    <rect x="50" y="110" width="20" height="20" rx="4" stroke="#E07A5F" stroke-width="3" fill="none"/>
    <path d="M54 120 L60 126 L74 112" stroke="#E07A5F" stroke-width="3" stroke-linecap="round" stroke-linejoin="round"/>
    <rect x="85" y="115" width="90" height="10" rx="2" fill="#E07A5F" opacity="0.3"/>

    <rect x="50" y="160" width="20" height="20" rx="4" stroke="#E07A5F" stroke-width="3" fill="none"/>
    <rect x="85" y="165" width="90" height="10" rx="2" fill="#E07A5F" opacity="0.3"/>

    <rect x="50" y="210" width="20" height="20" rx="4" stroke="#E07A5F" stroke-width="3" fill="none"/>
    <rect x="85" y="215" width="70" height="10" rx="2" fill="#E07A5F" opacity="0.3"/>
  </g>

  <!-- Logo -->
  <circle cx="80" cy="80" r="35" stroke="#E07A5F" stroke-width="3" fill="#FFFFFF"/>
  <path d="M80 45C80 45 68 60 68 80C68 100 80 115 80 115" stroke="#E07A5F" stroke-width="3" stroke-linecap="round"/>
  <path d="M80 45C80 45 92 60 92 80C92 100 80 115 80 115" stroke="#E07A5F" stroke-width="3" stroke-linecap="round"/>
  <circle cx="80" cy="52" r="6" fill="#E07A5F"/>

  <!-- Text -->
  <text x="140" y="90" font-family="Georgia, serif" font-size="36" fill="#6B7280">FemalePosture.com</text>
  <text x="80" y="300" font-family="Georgia, serif" font-size="72" font-weight="bold" fill="#1F2937">Self-Assessment Tools</text>
  <text x="80" y="380" font-family="system-ui, sans-serif" font-size="36" fill="#6B7280">Check your posture with simple home tests</text>
  <text x="80" y="550" font-family="system-ui, sans-serif" font-size="24" fill="#9CA3AF">femaleposture.com/tools</text>

  <defs>
    <linearGradient id="bg-gradient-tools" x1="0" y1="0" x2="1200" y2="630">
      <stop offset="0%" stop-color="#FDF8F6"/>
      <stop offset="100%" stop-color="#FFFFFF"/>
    </linearGradient>
  </defs>
</svg>
